<?xml version="1.0" encoding="utf-8"?>
<!-- Generator: Adobe Illustrator 19.1.0, SVG Export Plug-In . SVG Version: 6.00 Build 0)  -->
<svg version="1.1" id="Layer_1" xmlns="http://www.w3.org/2000/svg" xmlns:xlink="http://www.w3.org/1999/xlink" x="0px" y="0px"
	 viewBox="-291 355.8 28.7 81.2" style="enable-background:new -291 355.8 28.7 81.2;" xml:space="preserve">
<style type="text/css">
	.st0{fill:none;}
	.st1{enable-background:new    ;}
</style>
<path d="M-501.2,724.6"/>
<g>
	<path class="st0" d="M-276.9,371.8c-0.8,0-1.5,0.6-1.5,1.4v5.6c0,0.8,0.7,1.4,1.5,1.4s1.5-0.6,1.5-1.4v-5.6
		C-275.4,372.4-276.1,371.8-276.9,371.8z"/>
	<path class="st0" d="M-276.6,358c-5.5,0-10.1,3.7-11.5,8.7c0.7,0.3,1.6,0.6,2.7,0.9c1.1-3.8,4.5-6.6,8.7-6.6c4,0,7.6,2.9,8.7,6.6
		c1.2-0.4,2.1-0.7,2.8-1C-266.6,361.6-271.2,358-276.6,358z"/>
	<path d="M-276.6,355.8c-8,0-14.4,6.5-14.4,14.4c0,4.8,2.4,9.1,6,11.7c1.3,10.2,3.9,13.7,3.9,13.7c0,0.4,0.3,0.4,0.6,0.4h2.1v39.3
		c-1.7,0.1-3.3,0.4-3.3,0.8c0,0.5,2.3,0.9,4.9,0.9c2.6,0,4.9-0.4,4.9-0.9c-0.1-0.4-1.5-0.7-3.5-0.8V396h2.4c0.3,0,0.6-0.1,0.6-0.4
		c0,0,2.6-3.4,3.9-13.6c3.7-2.6,6.2-6.9,6.2-11.8C-262.3,362.3-268.7,355.9-276.6,355.8z M-275.4,378.8c0,0.8-0.7,1.4-1.5,1.4
		s-1.5-0.6-1.5-1.4v-5.6c0-0.8,0.7-1.4,1.5-1.4s1.5,0.6,1.5,1.4V378.8z M-268,367.6c-1.2-3.7-4.7-6.6-8.7-6.6
		c-4.2,0-7.7,2.8-8.7,6.6c-1.1-0.3-2-0.6-2.7-0.9c1.4-5,6-8.7,11.5-8.7c5.4,0,10,3.6,11.4,8.6C-265.9,366.9-266.8,367.2-268,367.6z"
		/>
</g>
<text transform="matrix(1 0 0 1 -546 804.8)" style="font-family:'HelveticaNeue-Bold'; font-size:5px;">Created by Yaroslav Samoilov</text>
<text transform="matrix(1 0 0 1 -546 809.8)" style="font-family:'HelveticaNeue-Bold'; font-size:5px;">from the Noun Project</text>
</svg>
